PathFileType	4	(X/Y/Z)	64_2_18_p1_0-568_filt_butterworth.trc
DataRate	CameraRate	NumFrames	NumMarkers	Units	OrigDataRate	OrigDataStartFrame	OrigNumFrames
53.0	53.0	4	27	m	53.0	0	568
Frame#	Time	RHip			RKnee			RAnkle			RBigToe			RSmallToe			RHeel			LHip			LKnee			LAnkle			LBigToe			LSmallToe			LHeel			Neck			Head			Nose			RShoulder			RElbow			RWrist			RThumb			RIndex			RPinky			LShoulder			LElbow			LWrist			LThumb			LIndex			LPinky			
		X1	Y1	Z1	X2	Y2	Z2	X3	Y3	Z3	X4	Y4	Z4	X5	Y5	Z5	X6	Y6	Z6	X7	Y7	Z7	X8	Y8	Z8	X9	Y9	Z9	X10	Y10	Z10	X11	Y11	Z11	X12	Y12	Z12	X13	Y13	Z13	X14	Y14	Z14	X15	Y15	Z15	X16	Y16	Z16	X17	Y17	Z17	X18	Y18	Z18	X19	Y19	Z19	X20	Y20	Z20	X21	Y21	Z21	X22	Y22	Z22	X23	Y23	Z23	X24	Y24	Z24	X25	Y25	Z25	X26	Y26	Z26	X27	Y27	Z27	
0	0.0	0.32208125129985393	0.3403756986183141	1.0536997625540905	0.2926817091821174	-0.12909351941125335	1.0868530456835883	0.25564086857778406	-0.5386307754213826	1.0893827111606644	0.2837297303494355	-0.5947496497550968	0.8955625615529058	0.34278881026639085	-0.594584297063331	0.9453327182549524	0.19479905120289348	-0.6220165392720299	1.170179301518037	0.11247420044899734	0.3371397425852087	0.9774121206304923	0.094143025397696	-0.11263817951925792	1.0244040202315021	0.07591782180403579	-0.5331601636384881	1.0759820562620064	0.12555361338623788	-0.5730416490965239	0.8468057846544019	0.048028183149325915	-0.589384721975765	0.9032928102619077	0.06965503019384514	-0.6011500344022565	1.1507334796902968	0.2697554750408787	0.9666438783140348	0.9747458230360035	0.30207509832990015	1.216542404859062	0.9243206351079273	0.3060207005714273	1.0761051439308045	0.8551745958557806	0.4145429260574962	0.8715218930685484	1.0771905324834246	0.4642437891708425	0.577410460382388	1.0273671304742842	0.352959516856218	0.39660870883779115	0.8617411038799773	0.24898781417666338	0.3126831305500457	0.8278408611095778	0.2481506367697585	0.295592672340014	0.8282048997672699	0.27309289558308303	0.2776276521480695	0.8353538388761628	0.10040609647350623	0.8826897014689399	0.9490551897975558	0.03640613077051152	0.5911957988982176	0.8975467996489652	0.21498950506677908	0.4026054608917947	0.7688015421236201	0.3277117674818931	0.34342576975064015	0.7882347184272456	0.3260311318025063	0.31341391713146893	0.7882583310682993	0.26639630262966435	0.2896804648009368	0.819997811153775	
1	0.0188679245283018	0.3221505456376956	0.33980325150159246	1.052742957845012	0.2927747596932188	-0.12914991878956306	1.086920061869864	0.25644675078022716	-0.5394327232951674	1.0867785291624292	0.28484087327150026	-0.5913814730090101	0.889818620758683	0.3412677766006933	-0.592207058054872	0.9407085297079367	0.19433077224042913	-0.6274999615331274	1.172425848711637	0.11059787142976982	0.33742520422026867	0.975925875983296	0.09397524401813034	-0.1122752436495345	1.023843237976014	0.07496469849984827	-0.5377760374827696	1.078820751203832	0.1253310059329369	-0.5700571342957826	0.8464492986564099	0.051186076164138034	-0.5876534260364609	0.9055000647584848	0.06852888169262453	-0.6043701736951322	1.152762961057178	0.2697552502879356	0.9666518809994682	0.974777494119062	0.302073477558186	1.216549944401525	0.9244792596027045	0.30594082486675356	1.076772905453118	0.8583591109200226	0.4149165740429138	0.871534800562301	1.0774232917245838	0.46429026269880075	0.5765125821187183	1.0333103946922204	0.35486925369178624	0.39555072753933274	0.8624447290080308	0.24812654069158077	0.3137502070962548	0.8274810629845044	0.24619171093428785	0.2962937106182034	0.8294863565906294	0.2732272724438491	0.2761162253359767	0.8354959428904474	0.09980632575372791	0.8842375192119489	0.9547167029075778	0.03194161613140506	0.5901534677340803	0.9035897359710536	0.21368574882095084	0.40089941754456115	0.775571413833393	0.3252539634795661	0.34322422695413496	0.7868747962335118	0.3200618525036631	0.3121626155482809	0.7914471688068192	0.26016982372908276	0.28771613009140506	0.8245365032999867	
2	0.0377358490566037	0.32216734462679847	0.3392216725971571	1.052082230859274	0.29285404596920817	-0.1293028586487151	1.087012854854437	0.25718586625976386	-0.5400058456221779	1.0845990575068416	0.28552577590184347	-0.5893431408706836	0.8861176872559149	0.3406512761531189	-0.5905012514111739	0.9374499781845846	0.19394836907418772	-0.6319827605210677	1.1743675291441453	0.1093023267384697	0.3376126064671175	0.9749091827995904	0.09382848482899414	-0.11201772205250798	1.0234400598069238	0.07428704039518601	-0.54148614669378	1.0810974690587818	0.12520725191358634	-0.5682175964495176	0.8461406446595091	0.053398470500983224	-0.5862420168795527	0.9066444661378424	0.06759519514606835	-0.6070234987252586	1.1544466077630273	0.26975204107266554	0.9666473285506516	0.9747961615980203	0.3020757976771985	1.2165495920630456	0.9245361825413707	0.30584763630457196	1.0768970201895796	0.8610993256980414	0.415525300925773	0.8715267417041537	1.0778007321330696	0.46436044839140384	0.5759687551621152	1.0370578781301918	0.3560422009197293	0.39471366365698013	0.8629143430550356	0.24803743880811677	0.31334767451120066	0.8273807759362669	0.24571313511779175	0.2965035615655856	0.8299446278651736	0.27319956069184986	0.275625903075756	0.8354793542737471	0.09938356131472326	0.8851739944434083	0.9585484763464253	0.029132874355358558	0.5893311005871357	0.9071653828682189	0.2122862665289549	0.3994330765727364	0.7811789815123495	0.3234215525146156	0.34263710986705836	0.7873481935266144	0.31696353130681215	0.31107491133065135	0.7939984718863511	0.25692231445628994	0.28654978499712624	0.8271491379192071	
3	0.0566037735849056	0.3221400550751847	0.3386407254171948	1.051682508698804	0.2929203712061596	-0.12953796123056538	1.087128982126319	0.25786174688068597	-0.5403721347691098	1.082814282690433	0.28587588423121596	-0.5883646018295046	0.8840739627292015	0.3407542371340123	-0.5893074923093203	0.9352593856676983	0.19364570455155142	-0.6355410367791922	1.1760247268824553	0.10852900753799531	0.3377126589563337	0.974316058085561	0.09370188867253088	-0.11185587130719948	1.023179006541993	0.07385870057459563	-0.544364687997007	1.082855763161776	0.12516251712573617	-0.5672976076900658	0.8458801199786443	0.05482081251075423	-0.5851292999551071	0.9069632053037031	0.0668396522235219	-0.6091512952570268	1.1558112305317874	0.269746870630869	0.9666338610117746	0.9748054351700516	0.30208089800921833	1.2165446012831818	0.9245190725319483	0.30575056519528515	1.0766390891015187	0.8633881239629985	0.4162803268953358	0.8715029901459477	1.0782677593493046	0.46448093178159044	0.5757063679918801	1.03905626569933	0.356625124946678	0.3940787226709252	0.863182777291811	0.24853860207882472	0.31186964886710383	0.827486357305547	0.24635908247836855	0.29630768652522443	0.8298030126529166	0.2730646227520765	0.2758558420265383	0.8353800539539833	0.09911110405280997	0.8856595932740888	0.9608650920354616	0.027653957995318442	0.5887776323534819	0.9088205972380604	0.21089566448890268	0.39819681496009923	0.7857296927513997	0.3221181335677798	0.3417369858049831	0.7891792712795687	0.31611812768124564	0.31012275732969796	0.7959722570589003	0.25601997443132746	0.28602375839144817	0.828233474966356	
